<svg xmlns="http://www.w3.org/2000/svg" width="18.642" height="10.874" viewBox="0 0 18.642 10.874">
  <g id="visibility" transform="translate(0 -106.662)">
    <g id="Groupe_17443" data-name="Groupe 17443" transform="translate(0 106.662)">
      <g id="Groupe_17442" data-name="Groupe 17442" transform="translate(0 0)">
        <path id="Tracé_12853" data-name="Tracé 12853" d="M18.573,111.879c-.147-.214-3.675-5.217-9.252-5.217-4.786,0-9.05,4.974-9.229,5.186a.39.39,0,0,0,0,.5c.179.212,4.444,5.186,9.229,5.186s9.05-4.974,9.229-5.186A.388.388,0,0,0,18.573,111.879ZM9.321,116.76c-3.836,0-7.484-3.658-8.411-4.66.925-1,4.569-4.66,8.411-4.66,4.489,0,7.657,3.653,8.431,4.639C16.858,113.048,13.19,116.76,9.321,116.76Z" transform="translate(0 -106.662)"/>
      </g>
    </g>
    <g id="Groupe_17445" data-name="Groupe 17445" transform="translate(6.214 108.992)">
      <g id="Groupe_17444" data-name="Groupe 17444">
        <path id="Tracé_12854" data-name="Tracé 12854" d="M173.769,170.662a3.107,3.107,0,1,0,3.107,3.107A3.11,3.11,0,0,0,173.769,170.662Zm0,5.437a2.33,2.33,0,1,1,2.33-2.33A2.333,2.333,0,0,1,173.769,176.1Z" transform="translate(-170.662 -170.662)"/>
      </g>
    </g>
  </g>
</svg>
