<svg xmlns="http://www.w3.org/2000/svg" width="22.672" height="17.003" viewBox="0 0 22.672 17.003">
  <g id="visibility_1_" data-name="visibility (1)" transform="translate(0 -64.008)">
    <g id="Groupe_17447" data-name="Groupe 17447" transform="translate(8.526 69.7)">
      <g id="Groupe_17446" data-name="Groupe 17446" transform="translate(0 0)">
        <path id="Tracé_12855" data-name="Tracé 12855" d="M198.031,192.68a.472.472,0,0,0-.668.668,2.834,2.834,0,1,1-4.007,4.007.472.472,0,0,0-.668.668,3.778,3.778,0,1,0,5.343-5.343Z" transform="translate(-192.55 -192.542)"/>
      </g>
    </g>
    <g id="Groupe_17449" data-name="Groupe 17449" transform="translate(7.557 68.731)">
      <g id="Groupe_17448" data-name="Groupe 17448" transform="translate(0 0)">
        <path id="Tracé_12856" data-name="Tracé 12856" d="M175.105,170.724a3.741,3.741,0,0,0-4.437,3.713,3.7,3.7,0,0,0,.066.658.473.473,0,0,0,.464.39.418.418,0,0,0,.083-.008.473.473,0,0,0,.383-.547,2.739,2.739,0,0,1-.051-.494,2.8,2.8,0,0,1,3.328-2.784.472.472,0,0,0,.164-.93Z" transform="translate(-170.668 -170.659)"/>
      </g>
    </g>
    <g id="Groupe_17451" data-name="Groupe 17451" transform="translate(5.908 67.216)">
      <g id="Groupe_17450" data-name="Groupe 17450" transform="translate(0 0)">
        <path id="Tracé_12857" data-name="Tracé 12857" d="M150.086,141.449a22.946,22.946,0,0,0-6.187-4.935.473.473,0,1,0-.434.84,22.2,22.2,0,0,1,5.625,4.4c-1.126,1.22-5.557,5.668-10.229,5.668a10.891,10.891,0,0,1-4.75-1.138.472.472,0,1,0-.41.85,11.812,11.812,0,0,0,5.16,1.233c5.82,0,11.006-6.05,11.224-6.307A.472.472,0,0,0,150.086,141.449Z" transform="translate(-133.435 -136.461)"/>
      </g>
    </g>
    <g id="Groupe_17453" data-name="Groupe 17453" transform="translate(0 65.897)">
      <g id="Groupe_17452" data-name="Groupe 17452" transform="translate(0 0)">
        <path id="Tracé_12858" data-name="Tracé 12858" d="M14.435,107.2a9.753,9.753,0,0,0-3.1-.544c-5.82,0-11.006,6.05-11.224,6.307a.472.472,0,0,0-.026.575,17.536,17.536,0,0,0,4.333,4.108.469.469,0,0,0,.654-.133.471.471,0,0,0-.132-.654A17.274,17.274,0,0,1,1.082,113.3C2.17,112.116,6.63,107.6,11.336,107.6a8.842,8.842,0,0,1,2.8.494.466.466,0,0,0,.6-.3A.471.471,0,0,0,14.435,107.2Z" transform="translate(0 -106.659)"/>
      </g>
    </g>
    <g id="Groupe_17455" data-name="Groupe 17455" transform="translate(2.833 64.008)">
      <g id="Groupe_17454" data-name="Groupe 17454" transform="translate(0 0)">
        <path id="Tracé_12859" data-name="Tracé 12859" d="M80.861,64.146a.473.473,0,0,0-.668,0L64.134,80.205a.472.472,0,0,0,.668.668L80.861,64.814A.473.473,0,0,0,80.861,64.146Z" transform="translate(-63.996 -64.008)"/>
      </g>
    </g>
  </g>
</svg>
