<svg xmlns="http://www.w3.org/2000/svg" width="13.851" height="13.5" viewBox="0 0 13.851 13.5">
  <path id="Icon_awesome-arrow-right" data-name="Icon awesome-arrow-right" d="M5.889,3.551l.686-.686a.739.739,0,0,1,1.048,0l6.01,6.007a.739.739,0,0,1,0,1.048l-6.01,6.01a.739.739,0,0,1-1.048,0l-.686-.686a.743.743,0,0,1,.012-1.06l3.725-3.549H.742A.74.74,0,0,1,0,9.892V8.9a.74.74,0,0,1,.742-.742H9.626L5.9,4.612A.737.737,0,0,1,5.889,3.551Z" transform="translate(13.851 16.147) rotate(180)" fill="#414242"/>
</svg>
